<svg width="20" height="34" viewBox="0 0 24 34" fill="none" xmlns="http://www.w3.org/2000/svg">
<path d="M5.29138 28.9189C4.8498 28.5872 4.22293 28.6763 3.89123 29.1179C3.55954 29.5595 3.64863 30.1863 4.09021 30.518L4.6908 29.7185L5.29138 28.9189ZM4.6908 15.416L3.70085 15.2745C3.64363 15.6751 3.83339 16.0706 4.18161 16.2766C4.52983 16.4826 4.96788 16.4585 5.29138 16.2155L4.6908 15.416ZM6.47843 2.90323V1.90323C5.98078 1.90323 5.55886 2.26915 5.48848 2.7618L6.47843 2.90323ZM18.9919 3.90323H19.9919V1.90323H18.9919V2.90323V3.90323ZM4.6908 29.7185L4.09021 30.518C5.75132 31.7657 7.81758 32.5054 10.0537 32.5054V31.5054V30.5054C8.26546 30.5054 6.61798 29.9154 5.29138 28.9189L4.6908 29.7185ZM10.0537 31.5054V32.5054C15.5424 32.5054 19.9919 28.0559 19.9919 22.5672H18.9919H17.9919C17.9919 26.9513 14.4378 30.5054 10.0537 30.5054V31.5054ZM18.9919 22.5672H19.9919C19.9919 17.0785 15.5424 12.629 10.0537 12.629V13.629V14.629C14.4378 14.629 17.9919 18.1831 17.9919 22.5672H18.9919ZM10.0537 13.629V12.629C7.81757 12.629 5.75132 13.3687 4.09021 14.6164L4.6908 15.416L5.29138 16.2155C6.61798 15.219 8.26547 14.629 10.0537 14.629V13.629ZM4.6908 15.416L5.68074 15.5574L7.46838 3.04466L6.47843 2.90323L5.48848 2.7618L3.70085 15.2745L4.6908 15.416ZM6.47843 2.90323V3.90323H18.9919V2.90323V1.90323H6.47843V2.90323Z" stroke-width="" fill="#2DE200"/>
</svg>
